/* XPM */
static char *_516718196608[] = {
/* columns rows colors chars-per-pixel */
"16 16 53 1 ",
"  c #1B3041",
". c #1C3041",
"X c #1E3243",
"o c #213546",
"O c #233748",
"+ c #26394A",
"@ c #273A4A",
"# c #273B4B",
"$ c #283C4C",
"% c #293C4D",
"& c #2B3E4E",
"* c #2B3E4F",
"= c #2C3F4F",
"- c #2D3F4F",
"; c #2D404F",
": c #2D4050",
"> c #304352",
", c #324554",
"< c #364857",
"1 c #384A59",
"2 c #394B5A",
"3 c #3C4E5D",
"4 c #405160",
"5 c #425361",
"6 c #445563",
"7 c #536370",
"8 c #74808B",
"9 c #7F8A94",
"0 c #8B959E",
"q c #8E98A0",
"w c #939DA5",
"e c #99A2A9",
"r c #A2ABB1",
"t c #A3ABB2",
"y c #A4ACB3",
"u c #A5ADB4",
"i c #A8B0B6",
"p c #ABB3B9",
"a c #AEB5BB",
"s c #B1B8BE",
"d c #B5BBC1",
"f c #B7BEC3",
"g c #B9BFC4",
"h c #BBC1C6",
"j c #BDC3C8",
"k c #C7CCD1",
"l c #CACED2",
"z c #D3D7DB",
"x c #D6D9DC",
"c c #D7DBDE",
"v c #EAECED",
"b c #EFF0F1",
"n c white",
/* pixels */
"&===============",
"================",
":&&;===,========",
"&&&&===..===&===",
":&&&@.:0e< O====",
":&&&4qvnnvw2@=&=",
"&&:o8xjgfhx0o=&=",
":&:&,supptd5+==@",
"&:&&<ayiitd6@-*-",
":&:&4hiaaig7O-&*",
"&::Xeckklkxp@*-*",
":&&:23333332*&@:",
"&&&:&@#$&@@@:&:&",
":&&&:******:&:@:",
":&:&&*&&*::&&@&*",
"&&&:&:*&:&&:*:&:"
};
