/* XPM */
static char *_516718203776[] = {
/* columns rows colors chars-per-pixel */
"32 32 93 2 ",
"   c #1B3041",
".  c #1C3042",
"X  c #1D3142",
"o  c #1F3344",
"O  c #203445",
"+  c #223646",
"@  c #233647",
"#  c #233748",
"$  c #243848",
"%  c #243849",
"&  c #283B4B",
"*  c #293C4D",
"=  c #2A3D4D",
"-  c #2B3E4E",
";  c #2B3E4F",
":  c #2B3F4F",
">  c #2C3F4F",
",  c #2D3F4F",
"<  c #2D4050",
"1  c #2E4151",
"2  c #2F4251",
"3  c #304352",
"4  c #304353",
"5  c #344656",
"6  c #374958",
"7  c #394B5A",
"8  c #3E505E",
"9  c #405160",
"0  c #455664",
"q  c #495967",
"w  c #4A5B68",
"e  c #4E5E6B",
"r  c #505F6D",
"t  c #596774",
"y  c #5B6A76",
"u  c #5C6B77",
"i  c #5D6C78",
"p  c #616F7B",
"a  c #62707C",
"s  c #66737F",
"d  c #6D7A85",
"f  c #6F7C87",
"g  c #7A8690",
"h  c #7B8791",
"j  c #7F8A94",
"k  c #88929B",
"l  c #8C969E",
"z  c #8D97A0",
"x  c #8E98A0",
"c  c #909AA2",
"v  c #969FA7",
"b  c #9DA6AD",
"n  c #A0A8B0",
"m  c #A3ABB2",
"M  c #ABB3B9",
"N  c #ADB4BA",
"B  c #AFB6BC",
"V  c #B0B7BD",
"C  c #B1B8BE",
"Z  c #B5BCC1",
"A  c #B7BEC3",
"S  c #B9BFC5",
"D  c #BAC0C5",
"F  c #BBC1C6",
"G  c #BBC1C7",
"H  c #BCC2C7",
"J  c #BEC4C9",
"K  c #C1C6CB",
"L  c #C2C7CC",
"P  c #C4C9CE",
"I  c #C5CACF",
"U  c #C6CBCF",
"Y  c #C8CDD1",
"T  c #CCD0D4",
"R  c #CDD1D5",
"E  c #CED2D6",
"W  c #D0D4D8",
"Q  c #D4D8DB",
"!  c #D6DADD",
"~  c #D7DADD",
"^  c #DBDEE1",
"/  c #E4E6E8",
"(  c #E9EBED",
")  c #ECEEEF",
"_  c #EFF0F2",
"`  c #F2F3F4",
"'  c #F2F4F4",
"]  c #F4F5F6",
"[  c #F7F8F8",
"{  c #F8F9F9",
"}  c #FBFBFB",
"|  c gray99",
" . c white",
/* pixels */
"- - > > > > > > > > > > > > > > > > > > > > > > > > > > > > - - ",
"- > > > > > > > > > > > > > > > > > > > > > > > > > > > > - > - ",
"> > > > > > > > > > > > > > > > > > > > > > > > > > > > > > > - ",
"> > > > > > > > > > > > > > > > > > > > > > > > > > > > > > > - ",
"> > > - - > > > > > > > > > > > > > > > > > > > - 1 > - > > > - ",
"> > - > > - > > > > > > > > > > > > > > > > > > > - - - - - 1 - ",
"> - > - - > - > > > > > > > > > 1 - - > > > > > - - 1 - - > - - ",
"> > > - - > > > > > > > > > 1 # @ 1 1 > - > > > - 1 - - - - 1 - ",
"> > - - 1 - - - 1 1 - > 3 $   e y O % > , > > > > - - > - - - < ",
"> > > > - > > - - > 1 @ X w M [  .K y O % > > > - 1 - - - - : - ",
"> > > > 1 - - 1 - @ X e N [  . .}  .| K t X O > - - - 1 - > : : ",
"> > > > - > - - < y U  . . . . . . . . . .W p > - > - - - * > : ",
"> > > > > > 1 @ i / E H K H K J S U S J J U ( s % > > > - - > > ",
"> > > > > > - 1 @ d K N l L v M G z P b n K z & > > = > - - : : ",
"> > > > > > > - < X ! E r  .s B ) q  .j c  .5 & > > = > > > > > ",
"> > > > > > > > < @ ! T w  .p M ( 7  .g l  .6 * > > > > * * : : ",
"> > > > > > > > > @ ~ E w  .p N ) 9  .h l  .6 & > > - > - - > - ",
"> > > > > > > > > % ~ Y e  .p N ) 9  .j l  .7 & > > - > - - > - ",
"> > > > > > > = 1 X Q E q  .i N _ 7  .h l  .3 - > > - > - - > - ",
"> > > > > > > 3 O y E S z ! v V Y k W b m W k X 1 - > > - - < - ",
"> > > > > > > % w ^ S V J V S Z C J V H Z V / f % 1 - > - - - < ",
"> > > > > > > O h [ _ [ ` ] ` ` ] ' ] ` ' ` [ N X > : : - - < - ",
"> > > > > > > > 4 > 3 > 3 > 4 > 1 > 3 > < < 3 3 > > : > - - - < ",
"> > > > > - > > > * > > * > * * > - - - - - - = > > - > - - - - ",
"> > > > > > > > > > > > > > > > > > > > > > > > - > - > > - - - ",
"> > > > > > > > > > > > > > > > > > > > > > > > > > - > - - > - ",
"> > > > > > > > > > > > > > > > > > > > > > > > > > > > - > > : ",
"> > > > > > > > > > > > > > > > > > > > > > > > > > - - - - > : ",
"> > > - > > > > > > > > > > > > > > > > > > > > > - > > - - - : ",
"> > > > = > : - ; ; ; ; ; ; ; ; ; ; ; ; ; ; ; ; > - - > - - > : ",
"- > - - > > > > > > > > > > > > > > > > : > > > : > - > - > > * ",
"- - > > * : - : ; ; ; ; ; ; ; ; ; ; ; ; ; : > > > * - - - > > > "
};
