/* XPM */
static char *_516718214389[] = {
/* columns rows colors chars-per-pixel */
"128 128 67 1 ",
"  c #0F2437",
". c #102537",
"X c #162B3D",
"o c #192D3F",
"O c #1A2F40",
"+ c #1E3243",
"@ c #223647",
"# c #243748",
"$ c #26394A",
"% c #2C3F4F",
"& c #2D404F",
"* c #2E4050",
"= c #324454",
"- c #364857",
"; c #374958",
": c #3D4E5D",
"> c #3E505E",
", c #455664",
"< c #495967",
"1 c #4B5B69",
"2 c #505F6C",
"3 c #52616F",
"4 c #556471",
"5 c #5A6976",
"6 c #616F7B",
"7 c #66747F",
"8 c #677580",
"9 c #697681",
"0 c #6E7B86",
"q c #707D87",
"w c #717E88",
"e c #76828C",
"r c #79858F",
"t c #7B8791",
"y c #7E8993",
"u c #808B94",
"i c #848E98",
"p c #8A959D",
"a c #8D97A0",
"s c #8E98A0",
"d c #949DA5",
"f c #9CA5AD",
"g c #9FA8AF",
"h c #A0A8AF",
"j c #A3ACB2",
"k c #ADB4BA",
"l c #B3BABF",
"z c #B5BBC1",
"x c #BDC3C8",
"c c #C3C8CD",
"v c #C9CED2",
"b c #CDD2D5",
"n c #D1D5D8",
"m c #D5D9DC",
"M c #DBDEE1",
"N c #DFE1E4",
"B c #E1E3E6",
"V c #E5E7E9",
"C c #E6E8EA",
"Z c #EBEDEE",
"A c #EEEFF1",
"S c #EFF0F2",
"D c #F2F3F5",
"F c #F7F7F8",
"G c #F7F8F8",
"H c #FEFEFE",
"J c None",
/* pixels */
"JJJJ%%%%%%%%%%%&%%%%%%%%%%%%%%%%%%%%%%%%*%%%%%%%%%*%%%%%%%%%%%%%%%&%%%%%%%%%%%%%%%%%%%%%%%%%****%%*$*%%*%%%&%%%%%%%%%%%**%*$JJJJ",
"JJ%%%%%%%*%%%%%%%%%%%%%&%%%%%%*%%*%%%%%%%%%%%%%%%%%%%%%%%%%%%%%%%%%%%%%%$*%%%%%%%%%%*%%%%%%%$*%%%%%%**%%%%%%%%%%%%*%%%*$$%*$**JJ",
"J%%%%%$%%%%%%%%%%%%*%%%%%%*%%%%%%%%%%&%%%%%%%%%%&%%%%%%%%*%%%%%%*%%%%%%%*%%%%%%*%%%*$*%*%%%&%%%%%%%%%%%%%%%%%%%%%%$*%%%%*&$*%%%J",
"J%%%%%%%%%%%%%%%%%%%%%%*%%%%%%%%%%%%%%%%*%%%*%%%%%%%%*%%%%%%*%%%%%%%%*%%**%*%%%%*%%***%%%%%%%%%%%%%%%%%%%%%*%%*%*%**%%&%****%%%J",
"%%%%%%%%*%%%%%%%%%%%%%%%%%%%%%%&*%%%%%%%%%%%%%%%%%%%%%%%%%%%%%%%%%%%%%%%%*%*%%%%%%%***%%%%%%%%%%%%%%%%&%$**%*%%%%%$***%%%%%%%%%%",
"%%%%%%&%%%%%%%%%%%%%%*%%%%%%%%%%%%%%%%%%%%&%%%%%%%%*%%%%%%&%%%%%%%%*%%%%%%%*%%&%%%*$*$*%*%%%%%%%%%%%%%%%*%*%%%%%%%*%%%%%%%%%%%&$",
"%%%%%%%%%%%%%%*%%%&%%%%%%*%%%%%%%%%%%%*%%%%%%*%%%%%%%%%%%%%%%%%%%%%%%%%%%%$*%%%%%%%%%%%%$*%*%%%%*$%%*%%%%%%%%%%%%%%%%%%%%%%%%%%%",
"%%&%%%%%%%%&%%%%%%%%%%%%%%%%*%%%%%%&%%%%%%%%%%%%%%%%%%%&%%%%*%%*%%%%%%%&%%*%%%%%%%%%*%%%**%%%%*%**%%%%%%%%%%%%%%%%%%*%%%%%%%%%%%",
"$%%%%%%%%&%%%%%%%%%%%&%%%%%%%%%*%%%%%%%%%%*%%%%%%*%%%%%%%%%%%%%%%*%*%%%%%%%*%%%%%%%%%*%%%%%%%%%%*%*%%%%%%%%%%%*%%%%%%%%%%%%%%%%%",
"%%%%%%%%%%%%%%%%%%%%%%%%%%%&%%%%&%%%*%%%%%%%%%%%%%%%%%%%*%%%%%%%%%%*%%%%%%%%%%%%%%%%*$%%%%%%%%%&%%%%%%%&%%%%%*%%%%%%%%%%%%%%%%%%",
"%%&%%%%%%*%%%%%%%%%*%%%%%%%%%%%%%%%%%%%%%%%%&%%%%%%%%%%%%%%%&%%%%%$*%%%*%*$*$*%%%%%%*%%%%*%%%%%%%%%%%%%%%%*$**%%%%%%%%%%%%%%%$%%",
"%%%%%*%%%%%%%%*%%%%%%%%%%%%%%%%%%%%%%%%%%%%%%%%%%%%%%%*%%%%%%%%%%%*%%%%%%%***%%%%%*%*%*%*$%%%*%%%%%%%%%*%***$*%%%%%%%%%%%%%%%%%%",
"%%%%%%%%%%%%%%%%%%%%*%%%%%%%%%*%%*%%%%%%%%*%%%%%%&%%%%%%&%%%%%%%%%%%%*$*%%%%*%%*%*$*%%%%*%*%%%%%%%%%%%%%*%*$**%%%%%%%%%%%%%%%%%%",
"%&%&%%%%%%%%%%%%*%%%%%%%%%%%%%%%%%%%%%%%%%%%%%%*%%%%%%%%%%%%%%%%%%*%%%**%%%%*%%%%%**%%%%*%%%%%%%$*%%%%%*%%%%%*%%*%%%%%%%%%%%%%%%",
"%%%%%%%%%%%*%%%%%%%%%%%%*%&%%%%%%%%%%*%&%%%%%%%%%%%*%%%%%%%%%%*%%%$*%%%&%%%*%%%%%%%&%%%*%%%%*%***%%%%%**%%%%%%%%%%%%%%%%%%%%%%%%",
"%%%%%*%%%%%%%%&%&%%%%%%%%%%%%%%%%%%%%%%%%%%%%%%%%%%%%%&%%%%*%%%%*%**%%%%%%%%%%%%%%%%%%%%%%%%%%%***%*%%$*%%%%%*%%%%%%%%%%%%%%%%%%",
"&%%%%%%%%%%%%%%%%%%%%%%%%%%%%%%%%%%%%%%%%%%%%%%*%%%%&%%%%%%*%%%%%%$**%%*%%%%%*%%%%%*%%%%***%*%*$%%=%%%%%%%%%%%%%*%%%%%%%%%%%%%%%",
"%%%%%%%%%%%%%%%%%%%%%%%*%%&%%%%*%&%%%*%%*%%%%%%%%%%*%%%%%%%%%%*%%%*%*%%%%%%%*$%%%%%%%%%%$*%%%%%%%%%%%%%%%%%%%%%%%%%%*%%%%%%%%%%%",
"%%%%*%&%%%%%%%%%%%%*%%%%%%%%%%%%%%%%%%%%%%%%&%%%%%%%%%%%%%%%%%%%%%%%%%%%%%%%*%%%%*$*$*%%%%%%%%%%%%%%%%%%%%%%%%%%*%%%%%%%%*%%%%%%",
"%%%%%%%%%%%%%%%%%%%%%%%*%%%%%%%%%%%%%%%%&%%%%%%%%%%%%%%%%%%%%%%%%%%%%%%%%%*%*%*%%%***%%%%%%%%%%%%%%%%%%%%%%%%%%%%%%%%%%%%%%%%%%%",
"%%*%%%%%%%&%%%%%%%%%%%%%%%%%%%%**%%%%%%%%%%%%%%%%%%%%%*%%%&%%%%%%%%%%%*%%*$*%%%%%%%%*%%**%%%%%%%%%%%%%%%%%%%%%%%%%%%%%%%%%%%%%%%",
"%%%%%&%%%%%%%%%%%%%%%%%%%%%%%%%%%%%%%%%%%%%%%%%%%*%%%%%%%%%%%%&%%%%%%%%%%%**%%%%%%%%*%%%%%%%%%%*%%%%%%%%%%%%%%%%%%%*%%%%%%%%%%%%",
"%%%%%%%%&%%%%%%%%%*%%%%%%*%&%%%%%%%%*%&%%%%%%*%%%%%%%%%%%*%%%%%%*$&%%%%%%%%&%%%*%%%*%%%%*%*%%%%%%%%%%%%%%%%%%%%%%%%%%%%*%%%%%%%%",
"%%%%%%%%%%%%%%%%%%%%%&%%%%%%%%%%%%%%%%%%%%*%%%%%%%%%%%%%%%%%%%%%**%%%%%%%%%%%%%%%%%%%%%%**$%%%%*%%%%%%%%%%%%%%%%%%%%%%%%%%%%%%%%",
"%%%%%%%%%%%%%%%%$%%%%*%%%%%%%%%%%%%%%%%%%%*%%%%%%&%%%%%%%%%%*%%**%*%%%&%%%%%%*$*%%%%%%%%%%%%%%**%%%%%%%%%%%%%%%$$%%%%%%%%%%%%%%%",
"*%%%&%%%%%%%%%%%%%%%%%%%%%%%%%%%%%%%*%%%%%%%%*%%%%%%%%%%%%%%%%%%%%%%%%%%%%%*%%**%&%%%*%%%%%&%%$*%%%%%%%=%%%%%%%%%%%%%%%%%%%%%%%%",
"%%%%%%%%%%%%%%%%%%%%%%%%%%%*%%%%%%%%%%%%%%%%%%%%%%%*%%%*&%%%%%%%%%%%%%%%%%%%%%%%*$%%%%%%%%%%%%%%%%%%%%%%%%%%%%%%%%%%%%%%%%%%%%%%",
"%%%%%%*%%%%%%%%%%%%%%%%%%%%%%%%&*%%%%%%%%%%%%%%%%%%%%%%%%%%%%%%%%%%%%%%%%%%%%%%%**%%%%%%%%%%%%%%%%%%%%%%%%%%%%%%%%%%%%%%%%%%%$%%",
"%%%%%%%%%%%%%%%%%%%$*%%%%%%%%%*%%&%%%%%%%%%&%%%%%%%%%%%%%%&%%%%%%%%%*%*%%%%%%%%%*%%%%%%%*$%%%%*%%%%%%%%%%%%%%%%%%$%%%%%%%%%%%%%%",
"%%&%%%%%%%%%%%$%%%%%%%%%%%%%%%%%%%%%%%%%%%%%%%%&%%%%%%&%%%%%%%%%$*%*%%%%%%%%&%*%*%%%$*%%**%%%%%%%%%%%%%%%%%%%$%%%%%%%%%%%%%%%%%%",
"%%%%%%%*%%%%%%%%%%%%%%%%%%*%%%%%%%%%%*%%*%%%%%%%%%%%%%%%%%&%%%%%*%%*%%%%*%%%%%%%%%%%*%%%*%*%%$*%%%%%%%%%%%%%%%%%%%%%%%%%%%%%%%%%",
"%%%%%%%%%%%%$%%%%%%%%%%&%%%%%%%%%%%%%%%%%%%%%%%*%%*%%%%%%%%%%%%%*%$*%%%%%%%%%%%%%%%%***%%%%%%***%%%%%%%%%%%%%%%%%%$%%%%%%%%%%%%%",
"%%%%%%%%*%%*%%%%%%&%%%%%%%%**%%%%%%%%%%%%%%%%%%%%%%%&%%%%&%%%%%&=&%%%%%%%%&%%%%%%%%%%%%%*%%%%%&%%%%%%%%%%%%%%%%%%%%%%%%%%%%%%%%%",
"*%%%%%%%%%%%%%%%%%%%%%%%%%%%%%%%%%%%%*%%%%%%*%%%%%%%%%%%%%%%%**$+#*%%%%%%%%%%%%%%%%%%%%%%%%%%%%%%%%%%%%%%%%%%%%%%%%%%%%%%%%%%%%%",
"%%%%&%%%%%%%%%%%%%%%%%%%%%%%%%%%%%&%%%%%%&%%%%%%%%%%%%%%%%%**$+<i1+$&%%%%%%%&%%%%&%%%%%%%%%%%%%%%%%%%%%%%%%%%%%%%%%%%%%%%%%%%%%%",
"%%%%%%%%%%%%%%%%%%%%%*%%%%%%%%%%%%%%%%%%%%%%*%%%%%%%%%%%%**@+<jFHGk<+$*&%%%%%%%%%%%%*%%*%%%&%%%%=%%%%%%%%%%%%%%%%%%$%%%%%%%%%%%%",
"*%&%%%%%%%%%%%%%%%%%%%*%%%%%%&%%%%%%&%%%%%&%%%%%%%%%%%%&*@@2kGHHHHHGk1+$=&%%%%%%%%%%%%%%%%%%%%&%%%%%%%%%%%%%%%%%%%%%%%%%%%%%%%%%",
"%%%%%%%%%%%%%%%&%%%*%%%%*%%%%%%%%*%%%%%%%%%%%%%%%%%%%**@@4zGHHHHHHHHHFk1+@=%%%%%%%*%%%%%%%%%%%%%%%%=%%%%%%%%%%%%%%%$%%%%%%%%%$%%",
"%%%%%%*%%%%%%%%%%%%%%%%%%%%%%%%*%%%%%%%%%%%%%%%%%%**&@@5xGHHHHHHHHHHHHHGk1+@*%%%%%%%%%*%%%&%%%%%%%%%%%%%%%%%%%%%%$%%%%%%%%%%%$%%",
"%%%%%%%%%&%*%%%%%&%%%%%%%%%%%%%%%%%%%%%*%%%%%%%%**%+@6cHHHHHHHHHHHHHHHHHHGk<+$**%%%%%%%%%%%%%%%%%%%%%%%%%%%%%%%%%%%%%$%%%%%%%%%%",
"%%%%%%%*%%%%%%%%%%%%%%%%%%%&%%%%%%%%%%%%*%%%%%&*%+$9vHHHHHHHHHHHHHHHHHHHHHHFk<+$**%%%%%%%%%%%%%%%%%%%%%%%%%%%%%%%%$%%%%%%%%%%%%%",
"%%%*%%%%%%%%%%%*%%&%%%%%%%%%&%%%&%%%%%&%%%**%*%+%0bHHHHHHHHHHHHHHHHHHHHHHHHHHGk<+$*%%%%%%%%%%%%%%%%%%%%%%%%%%%%%%%%%%%%%%%%%%%%%",
"%%%%%%%%%%*%%%%%%%%%%*%%%%%%%%%%%%%%%%%%%%%*%+%emHHHHHHHHHHHHHHHHHHHHHHHHHHHHHHGk1+$*&%%%%%%%%%%%%%%%%%%%%%%%%%%%%%%%%%%%%%%%%%%",
"%%%%%%%%%%%%%%%%%%%%%%%%&%%%%%%%%%&%%%&%%*$+*yMHHHHHHHHHHHHHHHHHHHHHHHHHHHHHHHHHHGk1+#&%%%%%%%%%%%%%%%%%%%%%%%%%%%$%%%%%%%%%%%%%",
"%%%%%&%%%%%%%%%&%%%*%%%%%%%%%%%%%%%*%%&*$+=iNHHHHHHHHHHHHHHHHHHHHHHHHHHHHHHHHHHHHHHGk1@#**%%%%%%%%%%%%%%%%%%%*%%%$%%%%%%%%%%%%%%",
"%&%%%%%%%%%%%%%%%%%%%%&%%%%%%%%%%%%%**$+;pCHHHHHHHHHHHHHHHHHHHHHHHHHHHHHHHHHHHHHHHHHHGk<+$**%%%%%%%%%%%%*%%%%%%%%%%%%%%%%%%%%%%%",
"%%%%%%%%%*%%%%%%%%%*%%%%%%%*%%%%%%%*$+;dZHHHHHHHHHHHHHHHHHHHHHHHHHHHHHHHHHHHHHHHHHHHHHHGk1+$*%%%%%%%=%%%%%%%%%%%%%$%%%%%%%%%%%%%",
"%*%%%%%%%%%%*%%%%%%%%%%%%%%%%%%%%&$+:fSHHHHHHHHHHHHHHHHHHHHHHHHHHHHHHHHHHHHHHHHHHHHHHHHHHGk<+$&%%%%%%%%%%%%%%%%%%%%%%%%%%%%%%%%%",
"%%%%%%%%%%%%%%%%&%%%%%%%%%%%%%%%%$>gDHHHHHHHHHHHHHHHHHHHHHHHHHHHHHHHHHHHHHHHHHHHHHHHHHHHGHHGk,$*%%%%%%%%%%%%%%%%%%%%%$%%%%%%%%%%",
"%%%%%%%%%%%%%*%%%%%%%%%%%&%%%*%%$:SHHHHHHHHHHHHHHHHHHHHHHHHHHHHHHHHHHHHHHHHHHHHHHHHHHHHHHHHHHG<$%%%%%%%%%%%%%%%%%$%%%%%%%%%%%%%%",
"%%%%%%%&%%%%%%%%%%%%%%*%%%%%%%%%$:vNMVHGNNNMNNNNBNNNBBBNNNNNBNNNBMBNMBNBBMBBBBBMBNNBBNNNBGHBMv:$%%%%%%%%%%%%%%%%%%$%%%%%%%%%%%%%",
"%%%*%%%%%%*%%%%%%%%*%%%%%%%%%%%%*$$*$<HC=$%%$%$%$%$%$$%$$%$%%$$%$%$%%$%$$%$%$$%$$$%$$%%$=VH<%$%%%%%%%%%%%%%%%%%$%%%%%%%%%%%%%%%%",
"%%%%%%%%&%%%%%%%%%%%%%%%%%%%%%%%%%%%$,HV,::>>>>::>::>>>>>:>>::>>>>::::>>>:>:,:::::>:>:::,VH,@%%$%%%%%%%%%%%%%%%%%$%%%$%%%%%%%%%%",
"%%%%%*%%%%%%*%%%%%%%%%&%*%%%*%%%%%%%$<HHGDFDFDFGHGGDFDDFDGGGGFFFFFDFGGGGFDFDDFHFGFFFDFDFGHH<$%%%%%%%%%%%%%%%%%%%%%%%%%%%%%%%%%%%",
"%%%%%%%%%%%%%%%%%%%%%%%%%%%%%%%%%%%%%-bSDHHHHHHDAAAHHHHHHFADAGHHHHHFDSADHHHHHHAASDHHHHHHDDb=%%%%%%%%%%%%%%%%%%%%%%%%%%%%%%%%%%%%",
"&%*%%%%%%%%%%%%%*%*%%%%%%%%%%%&%%%%%%$*;<DHHHHG4=:-bHHHHHr%>*jHGHHHk%:%tHHHHHn-;=4GHHHHD<-*%%%%%%%%%%%%%%%%%%%%%%%%$%%%%%%%%%%%%",
"%%%%%%%%%%%%%%%%%%%%%%%%%%%%%%%%%%%%%%%#:DHHHHG<@%@vHHHHH0O*ogHHHHHjo%OqHHHHHb#%@,GHHHHD:#%%%%%%%%%%%%%%%%%%%%%%%$%%%%%%%%%%%%%%",
"%%%%%%%*%%%%%%*%%%%%%%%*%%%%%%%%%%%%%%%$>DHHHHG1#*$bHHHHH0+=+jHHHHHj+=@wHHHGHn$*$,GHHHHD:%%%%%%%%%%%%%%%%%%%%%%%%%%%%%%%%%%%%%%%",
"%%%*%%%%%%%%%%%%%&%%%%%%%%%%%%%%%%%%%%*$>DHHHHG<$*$vHHHGHq+=+jHGHHHj+=+wHHHHHb$*$,GHHHHD:$%%%%%%%%%%%%%%%%%%%%%%%%%$%%%%%%%%%%%%",
"%%%%%%%*%&%%%%&%%%%%%&%%%*%%%%*%%%%%%%*$>DHHHHG<$*$bHHHHHw+=+jHHHGHj+=+qHHHHHn$*$<GHHHHD>$%%%%*%%%%%%%%%%%%%%%%%%%%%%%%%%%%%%%%%",
"%%%%%%%%%%%%%%%%%%%%%%%%%%%%%%%%%%%%%%&$>DHHHHH<$*$vHHHHHw+=+jHHHHHj+=+wHGHHHn$*#,GHHHHA>$%%%%%%%%%%%%%%%%%%%%%%%%%%%%%%%%%%%%%%",
"%%%%%%%%%%%%%%%%%%%%%%%%%%%%%%%%%%%%%%*$>DHHHHG<$*$bHHHHHw+=+jHHHHHj+=+qHHHHHb$*$,GHHHHD>$%%%%%%%%%%%*%%%%%%%%%%%%%$%%%%%%%%%%%%",
"%*%%%%%%%%%%%%%%%*%%%%%%%%%&*%%%%%%%%%%$>DHHHHG<$*$vHHHGHq+=+jHGHHHj+=+wHHHHHb$=#<FHHHHA,$%%%%%%%%%%%%%%%%%%%%%%%%%%%%%%%%%%%$%%",
"%%%%%&%%%*%%*%%%%%%%%*%%%%%%%%%%%%%%%%%$>DHHHHG1$*$bHHHHHw+=OjHHHHHj+=+wHHHHHn$&#<FHHHHA:$%%%%%%*%%*%%%%%%%%%%%%%$%%%%%%%%%%%%%%",
"%%%%%%%%%%%%%%%*%%%%%%%%%%%%%%*%%%%%%%=$>DHHHHG<$*$vHHHHHq+=+jHGHHHj+=+wHHHHHb%&$,GHHHHD:$*%%%%%%%%%%%%%%%%%%%%%%%%$%$%%%%%%%%%%",
"%%%%%%%*%%%&%%%%%%%%%%%*%%%&%%%%%%%%%%%$>DHHHHG<$*$bHHHGHq+=+jHHHHHj+=+wHHHGHb$*$,GHHHHD:$&%%%%%%%%%%%%%%%%%%*%%%%%%%%%%%%%%%%%%",
"%%%*%%%%%%%%%%%%%*%&%%%%%%%%%%%%%%%%%%&$>DHHHHH<$*$vHHHHHw+=+jHHHHHj+=+wHHHHHb$*$,GHHHHD>$&%%%%%=%%%%%%%%%%%%%%%%%%%%%%%%%%%%$%%",
"%%%%%%%%%*%%%%%%%%%%%%%%%*%%%%%%%%%%%%*$>DHHHHG<$*$vHHHHHq+=+hHHHHHj+=+wHHHHHb$=$<GHHHHD>$%%%%%%%%%%%%%%%*%%%%%%%%$%%%%%%%%&%%%%",
"%%%%&%%%%%%%%%%%%%%%%%%%%%%%%%%%%%%%%%%$>DHHHHG<$*$bHHHGHq+=+jHGHHHj+=+wHGHHHn$*#,GHHHHD>$%%%%%%%%%%%%%%%%%%%%%%%%$%%%%%%%%%%%%%",
"&%%%%%%%%%%%%%%%%%%%%%%%%%%%%%%%%%%%%%&$>DHHHHG1$*$bHHHHHw+=OjHHHGHj+=+wHHHHHb$*$,GHHHHD,$%%%%%%%%%%%%%%%%%%%%%%%%%%%%%%%%%%%%%%",
"%%%%%%%%%%%%%*%%%%%%*%%%%%%%%*%%%%%%%%*$>DHHHHG<$*$vHHHHHw+=+jHGHHHj+=+wHHHHHb$=$,GHHHHD:$%%%%%%%%%=%%%%%%%%%%%$%%$%%%%%%%%%%%%%",
"%%*%%%%%%*%%%%%%%%*%%%%%%&%%%%%%%%%%%%*$>DHHHHG<$*$bHHHHHw+=+jHHHHHj+=+wHHHHHn$&$<GHHHHD:#%%%%%%%%%%%%%%%%%%%%%%%%%%%%%%%%%%%%%%",
"%%%%%%%%%%%*%%%%%%%%%*%%%%%*%%%%%%%&%%%$:DHHHHH<$*$vHHHHHw+=+jHHHHHj+=+wHHHHHb%&$,GHHHHD>$&$%&%%%%%%%%%*%%%%%%%%%%%%%%%%%%%%%%%%",
"%%%%%%%%%%%%%%&%%%%%%%%%%%%%%%&%%%%%%%*$:DHHHHG<$*$vHHHHHq+=+jHHHHHj+=+wHHHGHb$*$,GHHHHD>$&%%%%%%%%%%%%%%%%%%%%%%$%%%%%%%%%%%%%%",
"%%%%%%&%%%%%%%%%%%%%%%%%%%%%%%%%%%%%%%*$:DHHHHG1$*$vHHHGHw+=OjHGHHHj+=+wHHHHHb$=$,GHHHHD>$%%%%%%%%%%%%%*%*%%%%%%%%$%%%%%%%%%%%%%",
"%%*%%%%%%%%*%%%%%%&%%%%%&%%%%%%%&%%%%%=%,DHHHHG1$*%bHHHHHw@-@jHHHGHj@-@wHHHHHn$=%<GHHHHD,%=%%%%%%%%%%%%%%%%%%%%%%%%%%%%%%%%%%%%%",
"%%%%%%%%%%%%%%%%*%%%%%%%%&%%%%%%%%%%%%@X=DHHHHG;X+XvHHHGH8 @ gHGHHHg @ 7HHHHHbo+X:FHHHHA=O@%%%%%%%%%%%%%%%%%%%%%%%$%%$%%%%%%%%%%",
"%%%%*%%%%%%%%*%%%%%%%*%%%%%%%%%%%%%%%$rddFHHHHGgadsBHHGHHlpdpbHHHGHbpdplHHGHHVadpgFGGHHFddr$%%%%%%%%%*%%%%%*%%%%%%%%%%%%%%%%%%%%",
"%%%%%%%%%&%%%%%%%%%%%%%%%%%%%%%%%%%%#,FHHHHHHHHHHHHHHHHHHHHHHHHHHHHHHHHHHHHHHHHHHHHHHHHHHHF,#&%%%%%%%%%%%%%%%%%%%%%%%%%%%%%%%%%%",
"%&%*%%%%%%%%%%%%%%%&%%%%%%%%%%%%%%%=$<HAggjggjggfgfgjgggggfffghgggjgfffgjggghgfgfgjggjhghAH1$=%%%%%%%%%%%%%%%%%%%%%$%%%%%%%%%%%%",
"%%%%%%%%%%%%%%%*%%%%*%&%%%%%%%%%%%$#X;HBX .     .      .    .                         . XBH:X@%&%%%%%%%%%%%%%%%%%%%$%%%%%%%%%%%%",
"%%%%%%*%%%%%%%%%%%%%%%%%%%%%%%%%%%%9ypHDiyuuiyuuyiuuuuuyuuuuyiuuyiuiuuuuuiuuuuuiuuuiuuyyiDHpt9$%%%%%%%%%%%%%%%%%%%%%%%%%%%%%%%%%",
"%%*%%%%%%%%&%%%%%%%*%%%%%%*%%%%%%#1HHHHHHHHHHHHHHHHHHHHHHHHHHHHHHHHHHHHHHHHHHHHHHHHHHHHHHHHHHG1#%%%%%%%%%%%%%%%$%%%%%%%%%%%%%%%%",
"%%%%%%%%%%%%%%%%%%%%%%%%%%%%%%%%&#2HGHHHHGHHHGHHGHHHHHHHHGHHHGHHHHHGHGHHGHHHHHHGHHHGHGHHHHHHHH5#%%%%%%%%%%%%%%%%%$%%%%%%%%%%%%%$",
"%%%%%%%*%%%%%%*%%%%%%*%%%%%%%%%%*#1HHHHHHHHHHHHHHHHHHHHGHHHHHHHHHHHHHHHHHHHHHHHHHHHHHHHHHHHHHH1@%%%%%%%%%%%%%%%%%%%%%%%%%%%%%%%%",
"%%%%%%%%%%%%%%%%%%%%%%%%%%%%%%%%%#qHHHHHGHHHHHHGHHHGHHGFHHHHGHHHGHHHHHHGHHHGHGHHGHHHHHHGHHHGHHe$%%%%%%%%%%%%%%%%%%%%%$%%%%%%%%%%",
"%%%%%%%%*%&%%%%%%&%%%%%%%%%%&%%%#1HHHHHHHHHHHHHHHHHHHHADHHHHHHHHHHHHHHHHHHHHHHHHHHHHHHHHHHHHHHH2%%%%%%%%%%%%%%%%%%%%%%%%%%%%%%%%",
"%*%%&%%%%%%%%%%%%%%%%%%%%*%%%%%%%-kccccccccccccccccccccxcccccccccccccccccccccccccccccccccccccck;%%%%%%%%%%%%%%%%%%%$%%%%%%%%%%%%",
"%%&%%%%%%%%%%%%%%%%%%&%%%%%%%%%%%%+@@#@@##@@@@#@#################@@@@@@#@#@@@@@##@@@@@@#@#@@@@+$%%%%%%%%%%%%%%%%%$%%%%%%%%%%%%%%",
"%%%%%%*%%%%%%%%%%%%%%%%%%%%%%%%%%****%*******%*%**%%%%*%%%%%%%%*******%*%**%**%*******%*%**%****%%%%%%%%%%%%%%%%%%%%%%%%%%%%%%%%",
"%%%%%%%%%%%%%%%&%%*%%%%*%*%&%%%%%%%%%%%%%%%%%%%%%%%*%%%%%%%%%%%%%%%%%%%%%%%%%%%%%%%%%%%%%%%%%%%%%%%%%%%%%%%%%%%%%%$%%%%%%%%%%$%%",
"%%%%%%%%%%%*%%%%%%%%%%%%%%%%%%&%%%%%%%%*%%%%%%%%%%%%%%%%%%%%%%%%%%%%*%%%%%%%*%%%%%%%*%%%%%%%%%%%%%%%%%%%%%%%%%%%%%%%%%%%%%%%%%%%",
"*%%%%%%%%%%%%%%%%%%%&%%%%%%%%%%%%%%%%%%%%%%%%%%*%%%%%%%%%%%%%%%%%%%%%%%%%%%%%%%%%%%%%%%%%%%%%%%%%%%%%%%%%%%%%%%%%%%%%%%%%%%%%%%%",
"%%%%*%%%%%%%%*%%%%%%%%%%%%%%%%%%%%%%%%%%%%%*%%%%%%%%%%%%%%%%%%*%%%%%%%%%%%%%%%%%%%%%%%%%%%%%%%%%%%%%%%%%%%%%%%%%%%%$%%%%%%%%%%%%",
"*%%%%%%%%%%%%%%%%%%%%%%%%%%%%%%%%%%%%%*%%%%%%%%%%%%%%%%%%%%%%%%%%%*%%*%%%%%%%*%%%%*%%*%%%%%%%*%%%%%%%%%%%%%%%%%%%%%%%%%%%%%%%$%%",
"%%%%%%%%&%*%%%%%%*%%%%%%%*%%%%%%%%%%%%%%%%%%%%%%%%%%*%*%%%%%%%%%%%%%%%%%%%*%%%%%%%%%%%%%%%*%%%%%%%%%%%%%%%%%%%%%%$%%%%%%%%%%%%%%",
"%%%%%%%%%%%%%%%%%%%%*%%%%%***%*%%%*%%%%%%%%%%%%%%%%%%%%%%%%%%%%%%%%%%%%%%%%%%%%%%%%%%%%%%%%*%%*%%%%%%%%%%%%%%%%%%%%%%%%%%%%%%%%%",
"%%%&%%%*%&%%$*%%%%%%**%*%%$*%%%%%%%%%%%%%%%%*%%%%%%%%%*%%%%*%%*%%%%%%%%%%%%%%%%%%%%%%%%%%%%%%%%%%%%%%%%%%%%%%%%%%%%%%%%%%%%%%%%%",
"%%%%%%%%%%%%*%%%%%*$*$%%%%%%%%%%%%%%%%%*%%%%%%%%%%*%%%%%%%%%%%%%%%=%%%%%%%%%%%%%%%%*%%%*%%%%%%%%%%%%%%%%%%%%%%%%%%%%%%%%%%%%%%%%",
"%%%%%%%%%%%%**%*%***%%%%%%%%%%%%%%%%%%%%%%*%%%%%%%%%%%%%%%%%%%%%%%%%%%%%%%%%%%%%%%%%%%%%%%%%%%%%%%%%%%%%%%%%%%%%%%%%%%%%%%%%%%%%",
"%%%%%%%**%%%%%***%*%%%%%*$%%%$**%%%%%%%%%%%%%%%%%%*%%%%%%%%*%%%%%%%%%%%%%=%%%%%%%%%%%%%%%%%*%%%%%%%%%%%%%%%%%%%%%%%%%%%%%%%%%%%%",
"%%%%%%%%%%%%*%*$%%%%%%%&**%%%*%*%%*%%%%%%%%%%%%%%%%%%%*%%%%%%%%%%%%%%%%%%%%%%%%%%*%%%%%%%%%%%%%%%%%%%%%%%%%%%%%%%%%$%%%%%%%%%$%%",
"%*%&%%%%%%%%%%%*%%%%%%%%*%%%%%%%%%%%%*%%%%%%%%%%%%%%%%%%%%%%%%%%%%%%%%%%%%%%%%%%%%%%%%%%%%%%%*%%%%%%%%%%%%%%%%%%%$%%%$%%%%%%%%%%",
"%%%%%%%%%%%%%%%%%%%%%%%%%%%%%%%*%%%%%%%%%%%*%%*%%%%%%%%%%%%%*%%*%%%%%%%%%%%%%=%%%%%%%*%%%%%%%%%%%%%%%%%%%%%%%%%%%%%%%%%%%%%%%%%%",
"%%%%%%%%%***%%%%%*%%%%***%*$*%%%%%%*%%*%*%%%%%%%%%%*%%%%%*%%%%%%%%%%%%%%%%%%%%%%%*%%%%%%%%%%%%%%%%%%%%%%%%%%%%%%%$%%%%%%%%%%%%%%",
"%%%%%%%%*$%%%%%%%%%%*%*$%%%%**%*%%%%%%%%%%%%%%*%%%%%%%%%%%%%%%%%%%%%%=%%%%%%%%%%%%%%%%%%%*%%%%%%%%%%%%%%%%%%%%%%%%%%%%%%%%%%%%%%",
"**%%%%%%%%%*%%%*%%%%%%%*%%%%%%%%%%%%%%%%%%%%%%%%%%%%%%%%%%%%%%%*%%%%%%%%%%%%%%%%%%%%%%%%%%%%%*%%%%%%%%%-%%%%%%%%%%$%%%%%%%%%%%%%",
"*$*%%%*%%%%%*%%*%%%%%%%%%%%%%%%%%%%%%%%%%%%%%%%%%%%%%%*%%%%%%%%%%%%%%%%%%%%%%%%%%%%%%%%%%%%%%%%%%%%%%%%%%%%%%%%%%%%%%%%%%%%%%$%%",
"%%%%%&**%%%*%%$*%%%%%%%%%%*%%%%&%%%*%%%%%%%%%%%%%%%%%%%%%%%%%*%%%%%%%%%%%%%%%%%%%%%%%%%%%%%%%*%%%%%%%%%%%%%%%%%%%%%%%%%%%%%%%%%%",
"*%%%%%*$%%%%%%*%%%&%%%%%%%%%%%%%%%%%%%%%%%%%%%%%%%%%%%%%%*%%%%%%%%%%%%%%%%%%%%%%%%%%%%%%*%%%%%%%%%%%%%%%%%%%%%%%%%$%%%%%%%%%%%%%",
"%%%%%%%*%*$*%%%%%%%%%%%%%%*%*%%%%%%%%%%%%*%%%%%%%%%%*%%%%%%%%%%%%%%%%%%%%%%%%%%%%%%%%%%%%%%%%%%%%%%%%%%%%%%%%%%%%%%%%%%%%%%%%%%%",
"%%%%%%%%%%**%%%%%%%%*%%%%%**$%%%%%%*%%%%%%%%%*%%*%%%%%%%%%%%%%%%%%%%%%%%=%%%%%%%%%%%%%%%%%%%%%%%%%%%%%%%%%%%%%%%%%%%%%%%%%%%%$%%",
"%%%%%%%%%%%%%%%%%***%%%%%%%%%%%%%%%%%%%%%%%*%%%%%%%%%%%%%%%%%%%%%%%%*%%%%%%%%%%%%%%%%%%%%%%%*%%%%%%%%%%%%%%%%%%%%%%%%$%%%%%%%%%%",
"%%%%%%%%%%%%%%%%*$%%%%%%*%%%%%%%%*%%%%%%%%%%%%%%*%%%%%%%%%%%*%%%*%%%%%%%%%%%%%*%%%%%%%%%%%%%%%%%%%%%%%%%%%%%%%%$%$%%%%%%%%%%%%%%",
"%%%%=%%%%%%%%%%%%%%*%%%*$*%*%%%&%%%%%*%%%%%%%%%*%%%%*%%%%%%%%%%%%%%%%%%%%%%%%%%%%%%%%%%%%%%%%%%%%%%%%%%%%%%%%%%%%%%$%%%%%%%%%%%%",
"%%%%%%%%%%%%%%%%%%%%*%%***%%%%%%%%%%%%%%%%%%%%%%%%%%%%%%%*%%%%%%*%%%%%%%%%*%%%%%%%%%%%%%%*%%%%%%=%%%%%%%%%%%%%%%%%%%%%%%%%%%%%%%",
"%%%%%%%%%%%%%%%%%%%*%%$*$*%%%*$*%%%%%%%%%%%%%%%%%%%%%%%%%%%%%%%%%%*%%%%%%%%%%%%*%%%%%%%%%%%%%%%%%%%%%%%%%%%%%%%%%%$%%%%%%%%%%%%$",
"%%%%%%%%%%%%%%%%%%%%%%*%*%%%%%**%%%%%%%%*%%%%*%%%%%%%%*%%%%%%*%%%%%%%%%*%%%*%%%%%%%%%%%%%%%%%%%%%%%%%%%%%%%%%%%%%%%%%%%%%%%%%%%%",
"%%%%%%%%%%%%%%%%%*$*%%%%**%%%%%%%%%%%%%%%%%%%%%%%%%%%%%%%*%%%%%%%%%%%%%%%%%%%%%%%%%%%%%%%%%*%%%*%%%%%%%%%%%%%%%%%$%%%%%%%%%%%%%%",
"%%%%%%%%%%%%%%%%%%**%%%%%%%%%%*%%%%%%%%%%%%%%%%%%%*%%%%%%%%%%%%%%%%%%%%%%%%%%%%%%%%%%%%%%%%%%%%%%%%%%%%%%%%%%%%%%%%%%%%%%%%%%%%%",
"%%%%%%%%%%%%%%%%%%%%%%%%%*%%*%%%%%%%%%%%%%%%%%%%%%%%%%%%%%%%%%%%%%%%%%%%%%%%*%%%%%%%%%%%%%%%%%%%%%%%%%%%%%%%%%%%%$%%%%%%%%%%%%%%",
"%%%%%%%%%%%%%%%%%%%%%%%%%%%%%%%%%%%%%%%%%%%%%%%%%%%%%%%%%%%%%%%%%%%%%%%%%*%%%%%%%%%%%%%%%%%%%%%%%%%%%%%%%%%%%%%%%%%%%%%%%%%%%%%%",
"%%%%%%%%%%%%%$%%%%%%%%%%%%%%*%%%%%%%%%%%%%%%%%%%%%%%%%%*%%%%%%%%%%%%%%%%%%%%%%%%%%%%%%%%%%%%%%%%%%%%%%%%%%%%%%%%%%%$%%%%%%%%%%%%",
"%%%%%%%%%%%%%%%%%%%%%%%%%%%%$%%%%%%%%%%%%%%%%%%%%%%*%%%%%%%%%%%%%%%%%%%%%%%%*%%%%%%%%%%%%%%%%%%%%%%%*%%%%%%%%%%%%%%%%%%%%%%%%%$%",
"J%%%%%%%%%%%%%$%%%%%%%%%%%%$*%%%%%%%%%%%%%%%%%%%%%%%%%%%%%%%%%%%%%%%%%%%%%$%%%%%%%%%%%%%%%%%%%%%%%%%%%%%%%$%%%%$%%$%%%%%%%%%%%%J",
"J%%%%%%%%%%%%%%%%%%%%%%%%%%%**%%%%%%%%%%%%%%%%%%%%%%%%%%%%%%%%%%%%%%%%%%%%%%%%%%%%%%%%%%%%%%%%%%%%%%%%%%%%%%%%%%%%%%%%%%%%%%%%%J",
"JJ%%%%%%%%%$%%%%%%$%%%%%%%%%%$%%%%%#%%%%%%%%%%%%%%%#%%%%$%%%%%%$%%%%%$%%%%%%%%%%%%%%%$$%%%%%$%%%%%%$%%%%%%%$%%%%$%%%%%%%%%%%%%JJ",
"JJJJ%%%%%%%%%%%%$%%%%$%%%%%%%%%%%%%%%%%#%%%%#%%%%%%%%%%%%%%%$%%%%%%%%%%$%%%%%%%%%%%%%%%%%%%%%%%%%%%%%%%%%%%%%%%%%%%%%%%%%%%%JJJJ"
};
