/* XPM */
static char *_516718208987[] = {
/* columns rows colors chars-per-pixel */
"64 64 243 2 ",
"   c #001125",
".  c #001529",
"X  c #00162A",
"o  c #041A2D",
"O  c #091F31",
"+  c #091F32",
"@  c #0D2235",
"#  c #0E2436",
"$  c #112638",
"%  c #122739",
"&  c #12283A",
"*  c #13283A",
"=  c #152A3C",
"-  c #172B3D",
";  c #172C3D",
":  c #1B3041",
">  c #1C3041",
",  c #1C3042",
"<  c #1C3142",
"1  c #1D3142",
"2  c #1D3243",
"3  c #1E3243",
"4  c #1E3344",
"5  c #1F3344",
"6  c #1F3444",
"7  c #203445",
"8  c #223647",
"9  c #233747",
"0  c #243748",
"q  c #253849",
"w  c #26394A",
"e  c #263A4A",
"r  c #273A4B",
"t  c #273B4B",
"y  c #283B4B",
"u  c #283B4C",
"i  c #293C4C",
"p  c #293C4D",
"a  c #293D4D",
"s  c #2A3D4D",
"d  c #2A3E4E",
"f  c #2B3E4E",
"g  c #2B3F4E",
"h  c #2B3E4F",
"j  c #2B3F4F",
"k  c #2C3E4E",
"l  c #2C3F4E",
"z  c #2C3E4F",
"x  c #2C3F4F",
"c  c #2D3F4F",
"v  c #2D4050",
"b  c #2E4050",
"n  c #2E4150",
"m  c #2E4151",
"M  c #2F4151",
"N  c #2F4251",
"B  c #2F4252",
"V  c #304352",
"C  c #314353",
"Z  c #324454",
"A  c #334554",
"S  c #344656",
"D  c #354757",
"F  c #354857",
"G  c #374958",
"H  c #394B5A",
"J  c #3A4B5A",
"K  c #3C4D5C",
"L  c #3E4F5E",
"P  c #3E505E",
"I  c #3F505F",
"U  c #415260",
"Y  c #425261",
"T  c #435462",
"R  c #445463",
"E  c #485866",
"W  c #485966",
"Q  c #4A5B68",
"!  c #4D5D6A",
"~  c #4E5E6B",
"^  c #4F5E6C",
"/  c #4F5F6C",
"(  c #505F6C",
")  c #505F6D",
"_  c #50606D",
"`  c #53626F",
"'  c #536370",
"]  c #546370",
"[  c #556471",
"{  c #556571",
"}  c #566572",
"|  c #576572",
" . c #586773",
".. c #596874",
"X. c #5A6975",
"o. c #5D6B77",
"O. c #5D6C78",
"+. c #616F7B",
"@. c #64727D",
"#. c #6B7883",
"$. c #6C7985",
"%. c #6D7A85",
"&. c #6F7C86",
"*. c #74818B",
"=. c #75818C",
"-. c #75828C",
";. c #76828C",
":. c #76828D",
">. c #77838D",
",. c #77838E",
"<. c #77848E",
"1. c #78848E",
"2. c #78848F",
"3. c #79858F",
"4. c #7A8690",
"5. c #7B8791",
"6. c #7C8891",
"7. c #7F8A94",
"8. c #808B95",
"9. c #818C95",
"0. c #818D96",
"q. c #828D97",
"w. c #838E97",
"e. c #859099",
"r. c #87919B",
"t. c #88929B",
"y. c #89949C",
"u. c #89949D",
"i. c #8A949D",
"p. c #8A959D",
"a. c #8A959E",
"s. c #8B959E",
"d. c #8C969F",
"f. c #8C979F",
"g. c #8D97A0",
"h. c #8F99A1",
"j. c #8F9AA2",
"k. c #909AA3",
"l. c #919BA3",
"z. c #939CA5",
"x. c #949EA6",
"c. c #969FA7",
"v. c #97A1A9",
"b. c #98A1A8",
"n. c #98A2A9",
"m. c #99A2AA",
"M. c #9AA3AB",
"N. c #9BA3AB",
"B. c #9BA4AB",
"V. c #9BA4AC",
"C. c #9CA5AC",
"Z. c #9DA6AD",
"A. c #A0A8AF",
"S. c #A2AAB1",
"D. c #A3ABB2",
"F. c #A5ADB4",
"G. c #A7AFB6",
"H. c #AAB1B8",
"J. c #AAB2B8",
"K. c #ABB3B9",
"L. c #AEB5BB",
"P. c #AFB6BC",
"I. c #B0B7BD",
"U. c #B2B9BF",
"Y. c #B4BBC0",
"T. c #B7BEC3",
"R. c #B8BEC3",
"E. c #B8BEC4",
"W. c #B9BFC5",
"Q. c #B9C0C5",
"!. c #BAC0C6",
"~. c #BBC1C6",
"^. c #BFC5CA",
"/. c #C0C5CA",
"(. c #C1C6CB",
"). c #C1C7CB",
"_. c #C2C7CC",
"`. c #C2C8CC",
"'. c #C3C8CD",
"]. c #C4C9CE",
"[. c #C5CACE",
"{. c #C6CBCF",
"}. c #C7CCD0",
"|. c #C8CDD1",
" X c #C9CED2",
".X c #CACED2",
"XX c #CACFD3",
"oX c #CBCFD3",
"OX c #CBD0D3",
"+X c #CBD0D4",
"@X c #CCD0D4",
"#X c #CFD3D6",
"$X c #D0D4D8",
"%X c #D0D5D8",
"&X c #D1D5D8",
"*X c #D3D6DA",
"=X c #D6DADD",
"-X c #D8DCDF",
";X c #D9DCDF",
":X c #DBDEE0",
">X c #DBDEE1",
",X c #DBDFE1",
"<X c #DCDFE2",
"1X c #DDE1E3",
"2X c #DEE1E3",
"3X c #E0E2E5",
"4X c #E1E4E6",
"5X c #E2E4E6",
"6X c #E2E4E7",
"7X c #E2E5E7",
"8X c #E4E7E9",
"9X c #E5E7E9",
"0X c #E6E8EA",
"qX c #E7E9EB",
"wX c #EAECEE",
"eX c #ECEDEF",
"rX c #ECEEEF",
"tX c #EDEEF0",
"yX c #EEEFF0",
"uX c #EFF0F1",
"iX c #F0F1F2",
"pX c #F0F1F3",
"aX c #F1F2F3",
"sX c #F2F3F4",
"dX c #F4F5F5",
"fX c #F4F5F6",
"gX c #F5F6F7",
"hX c #F6F7F7",
"jX c #F6F7F8",
"kX c #F8F9F9",
"lX c #F9FAFA",
"zX c gray98",
"xX c #FAFBFB",
"cX c #FBFBFB",
"vX c #FBFBFC",
"bX c #FBFCFC",
"nX c gray99",
"mX c #FCFDFD",
"MX c #FDFDFD",
"NX c #FDFDFE",
"BX c #FEFEFE",
"VX c white",
"CX c None",
/* pixels */
"CXf f f x x x x x x x x x x x x x x x x x x x x x x x x x x x x x x x x x x x x x x x x x x x x x x x x x x x x x x x x x f f CX",
"f f x x x x x x x x x x x x x x x x x x x x x x x x x x x x x x x x x x x x x x x x x x x x x x x x x x x x x x x x x x x x f f ",
"f x f x x x x x x x x x x x x x x x x x x x x x x x x x x x x x x x x x x x x x x x x x x x x x x x x x x x x x x x x x x f x f ",
"f x x x x x x x x x x x x x x x x x x x x x x x x x x x x x x x x x x x x x x x x x x x x x x x x x x x x x x x x x x x x f x f ",
"x x x x x x x x x x x x x x x x x x x x x x x x x x x x x x x x x x x x x x x x x x x x x x x x x x x x x x x x x x x x x f x j ",
"x x x x x x x x x x x x x x x x x x x x x x x x x x x x x x x x x x x x x x x x x x x x x x x x x x x x x x x x x x x x x f x j ",
"x x x x x x x x x x x x x x x x x x x x x x x x x x x x x x x x x x x x x x x x x x x x x x x x x x x x x x x x x x x x x h x j ",
"x x x x x x x x x x x x x x x x x x x x x x x x x x x x x x x x x x x x x x x x x x x x x x x x x x x x x x x x x x x x x h x j ",
"v f v f v f v f x x x x x x x x x x x x x x x x x x x x x x x x x x x x x x x x x x x x x x x x x x x x x x x x x x x x x h x h ",
"f v f v f v f v x x x x x x x x x x x x x x x x x x x x x x x x x x x x x x x x x x x x x x x x x x x x x x x x x x x x x h x h ",
"v f v f v f v f x x x x x x x x x x x x x x x x x x x x x x x x x x x x x x x x x x x x x x x x x x x x x x x x x x x x x h x h ",
"f v f v f v f f x x x x x x x x x x x x x x x x x x x x x x x x x x x x x x x x x x x x x x x x x x x x x x x x h x x x x h x h ",
"v f v f f v f v f f f v x x x x x x x x x x x x x x x x x x x x x x x x x x x x x x x x x x x x x x x x x x x x x h x x x h x h ",
"f v f v v f f f f f v f x x x x x x x x x x x x x x x x x x x x x x x x x x x x x x x x x x x x x x x x i x x i h x h x x h x h ",
"v f v f f f f f f v f x x x x x x x x x x x x x x x x x x x f v x x x x x x x x x x x x x x x x x x x x x x x i h i x h x h x h ",
"f v f v f v f f f f x x x x x x x x x x x x x x x x x x x f x v v v x x x x x x x x x x x x x x x x x x x x x x x x x h x h x h ",
"v f v f v f f v f x x x x x x x x x x x x x x x x x x f x v f 1 7 7 v v f x x v x x x x x x x x x x x x x x x x i x x x x h x h ",
"f v f v f v f f x x x x x x x x x x x x x x x x v x x V f 1 v r.U. .7 7 v v f x x x x x x x x x x x x x x x x x i x x x x h x h ",
"v f v f x x j x x x x x x x x x x x x x x v x f v v q 1 S u.0XVXVXVXQ.} 7 7 v v f f x x x x x x x x x x x x x x x x x i x h x h ",
"f v f v x x x x x x x x x x x x x x x x x x v v r 1 J l.wXVXVXVXkXnXVXVX~.} 5 7 v v f f x x x x x x x x x x i x x i x x x h x h ",
"x x x x x x x x x x x x x x x x x x x f v v q 1 L v.uXVXVXnXkXVXVXVXkXVXVXVXQ.` 7 7 V v v x v x x x x x x x x x i x x i x h x h ",
"x x x x x x x x x x x x x x x x x f v V q 1 T S.sXVXVXbXVXVXVXVXVXVXVXVXkXVXVXVXQ.} 7 7 v v f f x x x x x x i x x x x x x h x h ",
"x x x x x x x x x x x x x x j f x v q 1 W F.gXVXVXvXVXVXVXnXVXVXVXVXVXVXVXVXnXVXVXVX~.} 5 7 v f x x x x x x x x x i x x x h x h ",
"x x x x x x x x x x x x x x f f f 1 W L.gXVXVXkXkXVXkXkXVXkXbXbXkXbXbXkXVXkXnXkXkXkXVXnXQ.] 1 f x i x x x x x x x x x i x h x h ",
"x x x x x x x x x x x x x x x f v ~.VXVXVXVXVXVXVXVXVXVXVXVXVXVXVXVXVXVXVXVXVXVXVXVXVXVXVXVX`.Z i x x x x x i x i x x x x h x h ",
"x x x x x x x x x x x x x x x f S t.M.9X7.:.3.1.:.:.3.3.1.:.:.3.3.3.:.:.3.3.3.:.:.3.5.%.R.&Xw.S i x x x x x x x i x x x x h x h ",
"x x x x x x x x x x x x x x f x x = S rXM.r.y.h.V.z.y.y.h.B.x.u.u.g.M.x.u.t.s.M.v.u.s.8.-XA.+ x x x x x x x x x x x x i x h x h ",
"x x x x x x x x x x x x x x x f x v S w.=XVXVX-XM.oXVXVX7XV.).VXVXrXA.T.VXVXgXF.I.vXVXkXK. .h x x x x x x x x x x i x x x h x h ",
"x x x x x x x x x x x x x x x x f x v # g.VXVXM.  *.VXVXP.. o.VXVX.X+ T nXVX<X; v iXVXrXx 7 x x x x x x x x x x i x x i x h x h ",
"x x x x x x x x x x x x x x x x x f v 7 M.VXVXS.% w.VXVXW.= %.VXVX&X7 } VXVX7Xv Y sXVXiXL i x x x x x x x x i x x x x x x h x h ",
"x x x x x x x x x x x x x x x x x f v 1 v.VXVXS.# w.VXVXW.% #.VXVX&X< ' VXVX7Xf L gXVXuXK i x x x x x x x x i x x i x x x h x h ",
"x x x x x x x x x x x x x x x x x f V 1 v.VXVXS.# 8.VXVXW.% #.VXVX%X1 ' VXVX7Xq L gXVXyXK i x x x x x x x x x x x x x i x h x h ",
"x x x x x x x x x x x x x x x x v f v < v.VXVXS.# 8.VXVXW.% #.VXVX%X< ' VXVX7Xf P gXVXiXL q x x x x x x x x f x f f x f x f x f ",
"x x x x x x x x x x x x x x x x f f V < v.VXVXS.# 8.VXVXW.% #.VXVX%X< ' VXVX7Xt P gXVXuXL t x x x x x x x x f x f f x f x f x f ",
"x x x x x x x x x x x x x x x x v f V 1 v.VXVXS.# 8.VXVXW.% #.VXVX%X< ' VXVX2Xf P sXVXiXJ t v x x x x x x x f x f f x f x j x j ",
"x x x x x x x x x x x x x x x x f f v 1 v.VXVXS.# w.VXVXW.% #.VXVX%X< ' VXVX2Xf P gXVXiXL q v x x x x x x x f x f f x f x j x j ",
"x x x x x x x x x x x x x x x x v f v 7 M.VXVXS.$ w.VXVXW.= $.VXVX&X1 } VXVX3Xf Y gXVXuXL f x x x x x x x x f x i h x h x h x h ",
"x x x x x x x x x x x x x x x x f f v * h.VXVXM.. 1.VXVXY.o +.VXVX@X# W VXVX1X1 Z iXVXtXV 7 v f x x x x x x f x x h x h x j x h ",
"x x x x x x x x x x x x x x x x v v Z ` Q.VXVX)...K.VXVX$Xo.M.VXVX3X@.u.VXVXwX%.6.kXVXkX>.L f x x x x x x x f x x i x h x h x h ",
"x x x x x x x x x x x x x x x f v 7 F uX.X).).].oX].).).]..X}.)._.`..X.X).`.`..X.X_._.Q.iXC.* V x f x x x x f x x x x h x h x h ",
"x x x x x x x x x x x x x x v x f H &.0X .~ ~ / ~ ~ ) ) ~ ~ ~ ) ) / ~ ~ ) ) ) ~ ~ ) ` U G.).Y v x x x x x x i x i x x x x h x h ",
"x x x x x x x x x x x x x x f v < C.VXkXVXVXVXVXVXVXVXVXVXVXVXVXVXVXVXVXVXVXVXVXVXVXVXVXVXVXgXU q x x x x x x x i x x x x h x h ",
"x x x x x x x x x x x x x x x v 7 U.VXnXVXVXVXVXVXVXVXVXVXVXVXVXVXVXVXVXVXVXVXVXVXVXVXVXVXVXVX] 0 x x x x x x x x x x i x h x h ",
"x x x x x x x x x x x x x x x i J #X1X<X>X>X>X>X<X<X;X<X>X>X>X>X>X>X>X>X>X>X>X>X>X>X>X>X>X;X0Xe.7 V x x x x x x x i x x x h x h ",
"x x x x x x x x x x x x x x f x f f x f f f f f x x i i i h h h f f f f f f f f f f f f f f f f x f x x x x x x i x x i x h x h ",
"x x x x x x x x x x x x x x x f f f f f f f f f i x x x x h h h f f f f f f f f f f f f f f f x x f x x x x i x x x x x x h x h ",
"x x x x x x x x x x x x x x x x x x x x x x f x x x x x x x x x x x x x x x x x f x x x x x x x f x x x x x i x x i x x x h x h ",
"x x x x x x x x x x x x x x x x x x x x x x x x x x x x x x x x x x x x x x x x x x x x x x x x x x x x x x x x x x x i x h x h ",
"x x x x x x x x x x x x x x x x x x x x x x x x x x x x x x x x x x x x x x x x x x x x x x x x x x x x x x f x f f x f x f x f ",
"x x x x x x x x x x x x x x x x x x x x x x x x x x x x x x x x x x x x x x x x x x x x x x x x x x x x x x f x f f x f x f x f ",
"x x x x x x x x x x x x x x x x x x x x x x x x x x x x x x x x x x x x x x x x x x x x x x x x x x x x x x f x f f x f x h x f ",
"x x x x x x x x x x x x x x x x x x x x x x x x x x x x x x x x x x x x x x x x x x x x x x x x x x x x x x f x f f x f x j x j ",
"x x x x x x x x x x x x x x x x x x x x x x x x x x x x x x x x x x x x x x x x x x x x x x x x x x x x x x f x i h x h x h x h ",
"x x x x x x x x x x x x x x x x x x x x x x x x x x x x x x x x x x x x x x x x x x x x x x x x x x x x x x f x x h x h x h x h ",
"x x x x x x x x x x x x x x x x x x x x x x x x x x x x x x x x x x x x x x x x x x x x x x x x x x x x x x f x x i x h x h x h ",
"x x x x x x x x x x x x x x x x x x x x x x x x x x x x x x x x x x x x x x x x x x x x x x x x x x x x x x f x x x x h x h x h ",
"x x x x x x x x x x x x x x x x x x x x x x x x x x x x x x x x x x x x x x x x x x x x x x x x x x x x x x f x i x x x x h x h ",
"x x x x x x x x x x x x x x x x x x x x x x x x x x x x x x x x x x x x x x x x x x x x x x x x x x x x x x f x i x x x x h x h ",
"x x x x x x x x x x x x x x x x x x x x x x x x x x x x x x x x x x x x x x x x x x x x x x x x x x x x x x f x x x x i x h x h ",
"x x x x x x f f x x x x x x x x x x x x x x x x x x x x x x x x x x x x x x x x x x x x x x x x x x x x x x f x x i x x x h x h ",
"f x x x x h x x f x x x x x x x x x x x x x x x x x x x x x x x x x x x x x x x x x x x x x x x x x x x x x f x f f x f x x x x ",
"f x f x h x h h x h h h f f j j h h h h h h h h h h h h h h h h h h h h h h h h h h h h h h h h f j j j f f f x f f x f x i x h ",
"f f x x h x f f x x x x x x x x x x x x x x x x x x x x x x x x x x x x x x x x x x x x x x x x x x x x x x x x f f x f x x i x ",
"CXf f f x x x f f f h h j j j j h h h h h h h h h h h h h h h h h h h h h h h h h h h h h h h h h h h h f f f f f x f x f f x CX"
};
